PathFileType	4	(X/Y/Z)	C:\Users\dbl\Desktop\LZH\BX\Trimmed_bx_n_10_901.trc
DataRate	CameraRate	NumFrames	NumMarkers	Units	OrigDataRate	OrigDataStartFrame	OrigNumFrames
50.00	50.00	      4	43	mm	50.00	1139	      1518
Frame#	Time	Top.Head			R.Acromium			L.Acromium			Sternum			R.ASIS			L.ASIS			V.Sacral			R.Thigh.Upper			R.Thigh.Front			R.Thigh.Rear			R.Knee.Lat			R.Knee.Med			R.Shank.Upper			R.Shank.Front			R.Shank.Rear			R.Ankle.Lat			R.Midfoot.Lat			R.Toe.Lat			R.Toe.Tip			R.Toe.Med			R.Ankle.Med			R.Midfoot.Sup			R.Heel			L.Thigh.Upper			L.Thigh.Front			L.Thigh.Rear			L.Knee.Lat			L.Knee.Med			L.Shank.Upper			L.Shank.Front			L.Shank.Rear			L.Ankle.Lat			L.Midfoot.Lat			L.Toe.Lat			L.Toe.Tip			L.Toe.Med			L.Ankle.Med			L.Midfoot.Sup			L.Heel			origin1 front left			origin2 front right			origin 3 back right			origin 4 back leftt			
		X1	Y1	Z1	X2	Y2	Z2	X3	Y3	Z3	X4	Y4	Z4	X5	Y5	Z5	X6	Y6	Z6	X7	Y7	Z7	X8	Y8	Z8	X9	Y9	Z9	X10	Y10	Z10	X11	Y11	Z11	X12	Y12	Z12	X13	Y13	Z13	X14	Y14	Z14	X15	Y15	Z15	X16	Y16	Z16	X17	Y17	Z17	X18	Y18	Z18	X19	Y19	Z19	X20	Y20	Z20	X21	Y21	Z21	X22	Y22	Z22	X23	Y23	Z23	X24	Y24	Z24	X25	Y25	Z25	X26	Y26	Z26	X27	Y27	Z27	X28	Y28	Z28	X29	Y29	Z29	X30	Y30	Z30	X31	Y31	Z31	X32	Y32	Z32	X33	Y33	Z33	X34	Y34	Z34	X35	Y35	Z35	X36	Y36	Z36	X37	Y37	Z37	X38	Y38	Z38	X39	Y39	Z39	X40	Y40	Z40	X41	Y41	Z41	X42	Y42	Z42	X43	Y43	Z43	

1139	22.760	-76.76508	229.81622	1200.15442	-280.63345	82.89252	1036.81250	-283.15933	390.47360	1051.35596	-481.30753	248.90872	1021.33899	-725.17981	140.14870	969.81842	-693.61700	363.91751	964.66058	-872.06055	268.63123	1090.67371	-802.95160	90.16592	817.42542	-707.28625	152.81073	803.09821	-794.45782	103.50677	701.67987	-775.12604	126.32227	593.02924	-745.35034	233.43478	553.27448	-787.10327	124.86526	522.87683	-708.24268	176.10925	527.32721	-780.86707	115.85308	471.24533	-694.94269	141.75800	210.13608	-607.90863	88.53931	163.13354	-558.99042	70.46915	160.85791	-480.99176	120.26613	156.41499	-531.72125	166.51514	165.04005	-651.45569	220.63560	225.74654	-597.90698	198.22092	177.29044	-725.57477	208.44629	168.01939	-776.87189	457.95163	841.17163	-692.20984	392.08893	806.98376	-771.12756	449.23840	723.40845	-756.13391	422.44788	590.93488	-733.86292	317.71915	560.05768	-760.55023	425.43573	545.89502	-703.65393	363.34424	533.12000	-795.80219	431.55875	471.39032	-677.16400	418.88623	212.71530	-571.77026	457.71552	163.54488	-532.43707	466.86029	156.51906	-472.62701	412.15253	163.79944	-519.96454	374.67111	176.03618	-648.51514	326.28394	212.12953	-591.85736	339.69049	173.69936	-728.43030	348.75772	160.81456	-443.80872	448.33905	145.66594	-450.53900	74.96785	143.63463	-806.44287	82.75009	141.94131	-799.10248	457.45694	144.67937	
1140	22.780	-74.72607	230.66023	1186.60864	-280.12555	83.92107	1027.74707	-281.79886	390.46301	1042.35254	-481.31790	248.82375	1015.36951	-725.67798	140.72522	968.50378	-694.41901	364.28189	963.02899	-871.47449	268.91870	1091.03503	-803.37579	90.54881	817.22852	-707.87457	153.39348	802.98120	-794.75562	103.66499	701.58313	-775.28552	126.58443	593.01801	-745.63861	233.63960	553.19879	-787.23779	124.99031	522.88904	-708.39001	176.43343	527.26776	-780.97760	116.01466	471.14288	-694.93701	141.80492	210.13155	-607.83514	88.67772	163.20808	-558.93500	70.52547	160.90050	-481.02997	120.27940	156.39923	-531.72278	166.60378	164.94475	-651.30603	220.57510	225.40347	-597.95538	198.21301	177.21573	-725.62207	208.52728	167.94821	-777.67804	458.42188	841.05426	-692.92700	392.41205	806.57446	-771.85742	449.81247	723.27478	-756.72736	422.70087	590.67365	-734.45099	318.11697	560.06708	-761.04285	425.82053	545.79193	-704.17780	363.71027	533.11633	-796.21002	431.93015	471.24005	-677.25348	419.04800	212.64496	-571.82422	457.77963	163.45622	-532.42914	466.88577	156.44772	-472.67273	412.12408	163.81898	-520.00256	374.68854	176.05820	-648.54352	326.41208	212.07281	-591.91699	339.79044	173.68854	-728.51538	348.85004	160.74208	-443.81726	448.35477	145.68773	-450.53247	74.99739	143.63387	-806.44818	82.73703	141.95984	-799.19000	457.36856	144.58560	
1141	22.800	-72.79108	231.52466	1174.10144	-279.79852	84.88047	1019.65320	-280.85522	390.56741	1034.22314	-481.33548	248.74042	1009.62616	-726.00464	141.26120	967.31866	-695.26666	364.52948	961.49994	-870.82703	269.10800	1091.38110	-803.59174	90.85564	817.08521	-708.30188	153.90468	802.93024	-794.90454	103.76023	701.53412	-775.32166	126.76296	593.02771	-745.83350	233.80296	553.12671	-787.27753	125.05866	522.95087	-708.47131	176.64772	527.21234	-781.03296	116.00785	471.16620	-694.93115	141.82385	210.12022	-607.77063	88.78547	163.27441	-558.89233	70.56968	160.94057	-481.06183	120.29599	156.39644	-531.70422	166.69893	164.81438	-651.40405	220.56834	225.48657	-598.00360	198.18915	177.17532	-725.65411	208.54703	167.89886	-778.29755	458.84613	840.99170	-693.46704	392.76071	806.34924	-772.42450	450.36249	723.20868	-757.15045	422.90414	590.45203	-734.94232	318.43878	560.13354	-761.36914	426.20724	545.73669	-704.52277	364.07693	533.18475	-796.46265	432.35898	471.16217	-677.32220	419.24826	212.58665	-571.86975	457.83569	163.37306	-532.42487	466.91434	156.36708	-472.73157	412.09125	163.84657	-520.04980	374.70599	176.09668	-648.60046	326.53262	212.05061	-591.99396	339.92377	173.66171	-728.61108	348.99963	160.67569	-443.82785	448.36725	145.70024	-450.54358	75.01590	143.63278	-806.46045	82.71597	141.99638	-799.21967	457.29276	144.54465	
1142	22.820	-70.97827	232.39659	1162.70215	-279.61090	85.75942	1012.41693	-280.27069	390.80615	1026.91174	-481.36023	248.65874	1004.10901	-726.21582	141.73991	966.24982	-696.17712	364.67310	960.05017	-870.11420	269.21204	1091.69348	-803.66956	91.06396	816.99408	-708.59320	154.31659	802.92401	-794.93573	103.78807	701.50720	-775.23566	126.87218	593.05902	-745.92810	233.94704	553.04510	-787.21143	125.10365	523.05292	-708.47058	176.78831	527.16772	-781.01123	115.89664	471.29990	-694.91504	141.83423	210.10291	-607.71527	88.88168	163.32837	-558.86407	70.60654	160.98137	-481.07965	120.31150	156.40442	-531.67114	166.80072	164.66231	-651.55432	220.55453	225.78719	-598.04248	198.18855	177.16621	-725.66656	208.51521	167.87616	-778.73486	459.17990	840.96887	-693.84357	393.09476	806.25635	-772.82837	450.83685	723.19623	-757.42163	423.05457	590.27655	-735.31738	318.65439	560.22986	-761.54950	426.55084	545.70612	-704.71295	364.40167	533.28961	-796.60376	432.78116	471.14252	-677.37372	419.44424	212.53488	-571.90021	457.87735	163.30937	-532.42432	466.93991	156.30170	-472.79385	412.06311	163.88440	-520.10223	374.72458	176.14642	-648.67480	326.63586	212.05441	-592.07959	340.06827	173.61555	-728.69867	349.17200	160.59764	-443.84549	448.37158	145.70303	-450.57089	75.04032	143.61632	-806.47729	82.69741	142.03748	-799.17975	457.24823	144.56442	
